<svg xmlns="http://www.w3.org/2000/svg" width="166" height="445" viewBox="-18 -18 166 445" style="background:#fff"><path d="M 64.5 48 L 64.5 82" fill="none" stroke="#44505a" stroke-width="2"></path><path d="M 64.5 82 L 68.5 73 L 60.5 73 Z" fill="#44505a"></path><path d="M 64.5 169 L 64.5 195 L 90 195 L 90 273" fill="none" stroke="#44505a" stroke-width="2"></path><path d="M 90 273 L 94 264 L 86 264 Z" fill="#44505a"></path><foreignObject x="93" y="221" width="31" height="22"><div xmlns="http://www.w3.org/1999/xhtml" class="lbl" style="font-size:12.5px;color:#4a5560;text-shadow:0 0 3px #ffffff,0 0 3px #ffffff,0 0 3px #ffffff,0 0 3px #ffffff;white-space:pre-line">通過</div></foreignObject><path d="M 90 309 L 90 335 L 77.83333333333334 335 L 77.83333333333334 361" fill="none" stroke="#44505a" stroke-width="2"></path><path d="M 77.83333333333334 361 L 81.83333333333334 352 L 73.83333333333334 352 Z" fill="#44505a"></path><path d="M 51.166666666666664 361 L 51.166666666666664 335 L 39 335 L 39 195 L 42.75 195 L 42.75 147.25" fill="none" stroke="#44505a" stroke-width="2" stroke-dasharray="6 4"></path><path d="M 42.75 147.25 L 38.75 156.25 L 46.75 156.25 Z" fill="#44505a"></path><foreignObject x="12" y="221" width="31" height="22"><div xmlns="http://www.w3.org/1999/xhtml" class="lbl" style="font-size:12.5px;color:#4a5560;text-shadow:0 0 3px #ffffff,0 0 3px #ffffff,0 0 3px #ffffff,0 0 3px #ffffff;white-space:pre-line">退回</div></foreignObject><rect x="38.5" y="12" width="52" height="36" rx="7" fill="#eef4fb" stroke="#3f6fb0" stroke-width="1.6"></rect><foreignObject x="38.5" y="12" width="52" height="36"><div xmlns="http://www.w3.org/1999/xhtml" class="lbl" style="width:100%;height:100%;display:flex;align-items:center;justify-content:center;text-align:center;font-size:14px;color:#1c2b36;line-height:1.4;padding:0 4px;box-sizing:border-box"><div style="width:100%;min-width:0;white-space:pre-line;overflow-wrap:break-word;word-break:normal">開始</div></div></foreignObject><polygon points="64.5,82 108,125.5 64.5,169 21,125.5" fill="#fcf0e2" stroke="#c46e1a" stroke-width="1.8"></polygon><foreignObject x="21" y="82" width="87" height="87"><div xmlns="http://www.w3.org/1999/xhtml" class="lbl" style="width:100%;height:100%;display:flex;align-items:center;justify-content:center;text-align:center;font-size:14px;color:#23303a;line-height:1.4;padding:0 4px;box-sizing:border-box"><div style="width:100%;min-width:0;white-space:pre-line;overflow-wrap:break-word;word-break:normal">判斷?</div></div></foreignObject><rect x="64" y="273" width="52" height="36" rx="7" fill="#eaf4ef" stroke="#348a5c" stroke-width="1.6"></rect><foreignObject x="64" y="273" width="52" height="36"><div xmlns="http://www.w3.org/1999/xhtml" class="lbl" style="width:100%;height:100%;display:flex;align-items:center;justify-content:center;text-align:center;font-size:14px;color:#1c2b36;line-height:1.4;padding:0 4px;box-sizing:border-box"><div style="width:100%;min-width:0;white-space:pre-line;overflow-wrap:break-word;word-break:normal">結果</div></div></foreignObject><rect x="24.5" y="361" width="80" height="36" rx="7" fill="#fbecea" stroke="#c0392b" stroke-width="1.6"></rect><foreignObject x="24.5" y="361" width="80" height="36"><div xmlns="http://www.w3.org/1999/xhtml" class="lbl" style="width:100%;height:100%;display:flex;align-items:center;justify-content:center;text-align:center;font-size:14px;color:#23303a;line-height:1.4;padding:0 4px;box-sizing:border-box"><div style="width:100%;min-width:0;white-space:pre-line;overflow-wrap:break-word;word-break:normal">回饋來源</div></div></foreignObject></svg>