<svg xmlns="http://www.w3.org/2000/svg" width="241" height="445" viewBox="-18 -18 241 445" style="background:#fff"><path d="M 102 48 L 102 82" fill="none" stroke="#44505a" stroke-width="2"></path><path d="M 102 82 L 106 73 L 98 73 Z" fill="#44505a"></path><path d="M 102 169 L 102 195 L 160 195 L 160 273" fill="none" stroke="#44505a" stroke-width="2"></path><path d="M 160 273 L 164 264 L 156 264 Z" fill="#44505a"></path><foreignObject x="145" y="221" width="19" height="22"><div xmlns="http://www.w3.org/1999/xhtml" class="lbl" style="font-size:12.5px;color:#4a5560;text-shadow:0 0 3px #ffffff,0 0 3px #ffffff,0 0 3px #ffffff,0 0 3px #ffffff;white-space:nowrap">是</div></foreignObject><path d="M 102 169 L 102 195 L 45 195 L 45 273" fill="none" stroke="#44505a" stroke-width="2"></path><path d="M 45 273 L 49 264 L 41 264 Z" fill="#44505a"></path><foreignObject x="30" y="221" width="19" height="22"><div xmlns="http://www.w3.org/1999/xhtml" class="lbl" style="font-size:12.5px;color:#4a5560;text-shadow:0 0 3px #ffffff,0 0 3px #ffffff,0 0 3px #ffffff,0 0 3px #ffffff;white-space:nowrap">否</div></foreignObject><path d="M 160 309 L 160 335 L 144.33333333333334 335 L 144.33333333333334 361" fill="none" stroke="#44505a" stroke-width="2"></path><path d="M 144.33333333333334 361 L 148.33333333333334 352 L 140.33333333333334 352 Z" fill="#44505a"></path><path d="M 117.66666666666667 361 L 117.66666666666667 335 L 123.75 335 L 123.75 147.25" fill="none" stroke="#44505a" stroke-width="2" stroke-dasharray="6 4"></path><path d="M 123.75 147.25 L 119.75 156.25 L 127.75 156.25 Z" fill="#44505a"></path><rect x="76" y="12" width="52" height="36" rx="7" fill="#eef4fb" stroke="#3f6fb0" stroke-width="1.6"></rect><foreignObject x="76" y="12" width="52" height="36"><div xmlns="http://www.w3.org/1999/xhtml" class="lbl" style="width:100%;height:100%;display:flex;align-items:center;justify-content:center;text-align:center;font-size:14px;color:#1c2b36;line-height:1.4;padding:0 4px;box-sizing:border-box"><div style="width:100%;min-width:0;overflow-wrap:break-word;word-break:normal">開始</div></div></foreignObject><polygon points="102,82 145.5,125.5 102,169 58.5,125.5" fill="#fcf0e2" stroke="#c46e1a" stroke-width="1.8"></polygon><foreignObject x="58.5" y="82" width="87" height="87"><div xmlns="http://www.w3.org/1999/xhtml" class="lbl" style="width:100%;height:100%;display:flex;align-items:center;justify-content:center;text-align:center;font-size:14px;color:#23303a;line-height:1.4;padding:0 4px;box-sizing:border-box"><div style="width:100%;min-width:0;overflow-wrap:break-word;word-break:normal">判斷?</div></div></foreignObject><rect x="127" y="273" width="66" height="36" rx="7" fill="#eaf4ef" stroke="#348a5c" stroke-width="1.6"></rect><foreignObject x="127" y="273" width="66" height="36"><div xmlns="http://www.w3.org/1999/xhtml" class="lbl" style="width:100%;height:100%;display:flex;align-items:center;justify-content:center;text-align:center;font-size:14px;color:#1c2b36;line-height:1.4;padding:0 4px;box-sizing:border-box"><div style="width:100%;min-width:0;overflow-wrap:break-word;word-break:normal">結果一</div></div></foreignObject><rect x="12" y="273" width="66" height="36" rx="7" fill="#fcf0e2" stroke="#c46e1a" stroke-width="1.6"></rect><foreignObject x="12" y="273" width="66" height="36"><div xmlns="http://www.w3.org/1999/xhtml" class="lbl" style="width:100%;height:100%;display:flex;align-items:center;justify-content:center;text-align:center;font-size:14px;color:#1c2b36;line-height:1.4;padding:0 4px;box-sizing:border-box"><div style="width:100%;min-width:0;overflow-wrap:break-word;word-break:normal">結果二</div></div></foreignObject><rect x="91" y="361" width="80" height="36" rx="7" fill="#fbecea" stroke="#c0392b" stroke-width="1.6"></rect><foreignObject x="91" y="361" width="80" height="36"><div xmlns="http://www.w3.org/1999/xhtml" class="lbl" style="width:100%;height:100%;display:flex;align-items:center;justify-content:center;text-align:center;font-size:14px;color:#23303a;line-height:1.4;padding:0 4px;box-sizing:border-box"><div style="width:100%;min-width:0;overflow-wrap:break-word;word-break:normal">回饋來源</div></div></foreignObject></svg>