<svg xmlns="http://www.w3.org/2000/svg" width="240" height="451" viewBox="-18 -18 240 451" style="background:#fff"><path d="M 96.58333333333334 48 L 96.58333333333334 74 L 127.5 74 L 127.5 152" fill="none" stroke="#44505a" stroke-width="2"></path><path d="M 127.5 152 L 131.5 143 L 123.5 143 Z" fill="#44505a"></path><path d="M 127.5 281 L 127.5 367" fill="none" stroke="#44505a" stroke-width="2"></path><path d="M 127.5 367 L 131.5 358 L 123.5 358 Z" fill="#44505a"></path><foreignObject x="112.5" y="315" width="19" height="22"><div xmlns="http://www.w3.org/1999/xhtml" class="lbl" style="font-size:12.5px;color:#4a5560;text-shadow:0 0 3px #ffffff,0 0 3px #ffffff,0 0 3px #ffffff,0 0 3px #ffffff;white-space:pre-line">是</div></foreignObject><path d="M 63 216.5 L 39 216.5 L 39 74 L 69.91666666666667 74 L 69.91666666666667 48" fill="none" stroke="#44505a" stroke-width="2" stroke-dasharray="6 4"></path><path d="M 69.91666666666667 48 L 65.91666666666667 57 L 73.91666666666667 57 Z" fill="#44505a"></path><foreignObject x="12" y="100" width="31" height="22"><div xmlns="http://www.w3.org/1999/xhtml" class="lbl" style="font-size:12.5px;color:#4a5560;text-shadow:0 0 3px #ffffff,0 0 3px #ffffff,0 0 3px #ffffff,0 0 3px #ffffff;white-space:pre-line">退回</div></foreignObject><rect x="43.25" y="12" width="80" height="36" rx="7" fill="#eef4fb" stroke="#3f6fb0" stroke-width="1.6"></rect><foreignObject x="43.25" y="12" width="80" height="36"><div xmlns="http://www.w3.org/1999/xhtml" class="lbl" style="width:100%;height:100%;display:flex;align-items:center;justify-content:center;text-align:center;font-size:14px;color:#1c2b36;line-height:1.4;padding:0 4px;box-sizing:border-box"><div style="width:100%;min-width:0;white-space:pre-line;overflow-wrap:break-word;word-break:normal">申請資料</div></div></foreignObject><polygon points="127.5,152 192,216.5 127.5,281 63,216.5" fill="#fcf0e2" stroke="#c46e1a" stroke-width="1.8"></polygon><foreignObject x="63" y="152" width="129" height="129"><div xmlns="http://www.w3.org/1999/xhtml" class="lbl" style="width:100%;height:100%;display:flex;align-items:center;justify-content:center;text-align:center;font-size:14px;color:#23303a;line-height:1.4;padding:0 4px;box-sizing:border-box"><div style="width:100%;min-width:0;white-space:pre-line;overflow-wrap:break-word;word-break:normal">審核通過?</div></div></foreignObject><rect x="87.5" y="367" width="80" height="36" rx="7" fill="#eaf4ef" stroke="#348a5c" stroke-width="1.6"></rect><foreignObject x="87.5" y="367" width="80" height="36"><div xmlns="http://www.w3.org/1999/xhtml" class="lbl" style="width:100%;height:100%;display:flex;align-items:center;justify-content:center;text-align:center;font-size:14px;color:#1c2b36;line-height:1.4;padding:0 4px;box-sizing:border-box"><div style="width:100%;min-width:0;white-space:pre-line;overflow-wrap:break-word;word-break:normal">建檔完成</div></div></foreignObject></svg>