<svg xmlns="http://www.w3.org/2000/svg" width="1428" height="616" viewBox="-18 -18 1428 616" style="background:#fff"><rect x="49" y="12" width="136" height="395" rx="8" fill="#f5f9fe" fill-opacity="0.38" stroke="#3f6fb0" stroke-width="2"></rect><foreignObject x="82.5" y="17" width="69" height="33"><div xmlns="http://www.w3.org/1999/xhtml" class="lbl" style="text-align:center;font-weight:bold;font-size:15px;color:#3f6fb0;line-height:1.3;white-space:pre-line;overflow-wrap:break-word;word-break:normal">裝置端</div></foreignObject><rect x="385" y="14.25" width="330" height="220" rx="8" fill="#f0f7f3" fill-opacity="0.38" stroke="#348a5c" stroke-width="2"></rect><foreignObject x="515.5" y="19.25" width="69" height="33"><div xmlns="http://www.w3.org/1999/xhtml" class="lbl" style="text-align:center;font-weight:bold;font-size:15px;color:#348a5c;line-height:1.3;white-space:pre-line;overflow-wrap:break-word;word-break:normal">閘道層</div></foreignObject><rect x="891" y="82" width="452" height="440" rx="8" fill="#fdf6ec" fill-opacity="0.38" stroke="#c46e1a" stroke-width="2"></rect><foreignObject x="1075" y="87" width="84" height="33"><div xmlns="http://www.w3.org/1999/xhtml" class="lbl" style="text-align:center;font-weight:bold;font-size:15px;color:#c46e1a;line-height:1.3;white-space:pre-line;overflow-wrap:break-word;word-break:normal">雲端平台</div></foreignObject><path d="M 503.8 85.25 L 521.8 85.25 L 521.8 77.25 L 621 77.25" fill="none" stroke="#44505a" stroke-width="2"></path><path d="M 621 77.25 L 612 73.25 L 612 81.25 Z" fill="#44505a"></path><foreignObject x="541" y="56.25" width="56" height="22"><div xmlns="http://www.w3.org/1999/xhtml" class="lbl" style="font-size:12.5px;color:#4a5560;text-shadow:0 0 3px #ffffff,0 0 3px #ffffff,0 0 3px #ffffff,0 0 3px #ffffff;white-space:pre-line">本地儲存</div></foreignObject><path d="M 1151 142 L 1205 142 L 1205 180 L 897 180 L 897 333 L 915 333" fill="none" stroke="#44505a" stroke-width="2"></path><path d="M 915 333 L 906 329 L 906 337 Z" fill="#44505a"></path><path d="M 1029 298.66666666666663 L 1047 298.66666666666663 L 1047 201 L 1225 201" fill="none" stroke="#44505a" stroke-width="2"></path><path d="M 1225 201 L 1216 197 L 1216 205 Z" fill="#44505a"></path><foreignObject x="1109" y="204" width="56" height="22"><div xmlns="http://www.w3.org/1999/xhtml" class="lbl" style="font-size:12.5px;color:#4a5560;text-shadow:0 0 3px #ffffff,0 0 3px #ffffff,0 0 3px #ffffff,0 0 3px #ffffff;white-space:pre-line">時序寫入</div></foreignObject><path d="M 1029 315.83333333333337 L 1063 315.83333333333337 L 1063 265 L 1225 265" fill="none" stroke="#44505a" stroke-width="2" stroke-dasharray="6 4"></path><path d="M 1225 265 L 1216 261 L 1216 269 Z" fill="#44505a"></path><foreignObject x="1109" y="268" width="56" height="22"><div xmlns="http://www.w3.org/1999/xhtml" class="lbl" style="font-size:12.5px;color:#4a5560;text-shadow:0 0 3px #ffffff,0 0 3px #ffffff,0 0 3px #ffffff,0 0 3px #ffffff;white-space:pre-line">觸發告警</div></foreignObject><path d="M 1029 350.1666666666667 L 1063 350.1666666666667 L 1063 379 L 1225 379" fill="none" stroke="#44505a" stroke-width="2"></path><path d="M 1225 379 L 1216 375 L 1216 383 Z" fill="#44505a"></path><foreignObject x="1109" y="382" width="56" height="22"><div xmlns="http://www.w3.org/1999/xhtml" class="lbl" style="font-size:12.5px;color:#4a5560;text-shadow:0 0 3px #ffffff,0 0 3px #ffffff,0 0 3px #ffffff,0 0 3px #ffffff;white-space:pre-line">監控呈現</div></foreignObject><path d="M 1029 333 L 1073 333" fill="none" stroke="#44505a" stroke-width="2"></path><path d="M 1073 333 L 1064 329 L 1064 337 Z" fill="#44505a"></path><path d="M 1029 367.33333333333337 L 1047 367.33333333333337 L 1047 447 L 1073 447" fill="none" stroke="#44505a" stroke-width="2"></path><path d="M 1073 447 L 1064 443 L 1064 451 Z" fill="#44505a"></path><path d="M 171 72 L 222 72 L 222 59.08333333333334 L 405.8 59.08333333333334 L 405.8 82.25 L 423.8 82.25" fill="none" stroke="#44505a" stroke-width="2" stroke-dasharray="6 4"></path><path d="M 423.8 82.25 L 414.8 78.25 L 414.8 86.25 Z" fill="#44505a"></path><foreignObject x="248" y="62.08333333333334" width="56" height="22"><div xmlns="http://www.w3.org/1999/xhtml" class="lbl" style="font-size:12.5px;color:#4a5560;text-shadow:0 0 3px #ffffff,0 0 3px #ffffff,0 0 3px #ffffff,0 0 3px #ffffff;white-space:pre-line">回報遙測</div></foreignObject><path d="M 171 136 L 222 136 L 222 113.08333333333334 L 324 113.08333333333334 L 324 91.25 L 423.8 91.25" fill="none" stroke="#44505a" stroke-width="2" stroke-dasharray="6 4"></path><path d="M 423.8 91.25 L 414.8 87.25 L 414.8 95.25 Z" fill="#44505a"></path><foreignObject x="248" y="116.08333333333334" width="56" height="22"><div xmlns="http://www.w3.org/1999/xhtml" class="lbl" style="font-size:12.5px;color:#4a5560;text-shadow:0 0 3px #ffffff,0 0 3px #ffffff,0 0 3px #ffffff,0 0 3px #ffffff;white-space:pre-line">影像串流</div></foreignObject><path d="M 171 200 L 222 200 L 222 167.08333333333334 L 324 167.08333333333334 L 324 164.91666666666669 L 419 164.91666666666669" fill="none" stroke="#44505a" stroke-width="2" stroke-dasharray="6 4"></path><path d="M 419 164.91666666666669 L 410 160.91666666666669 L 410 168.91666666666669 Z" fill="#44505a"></path><foreignObject x="248" y="170.08333333333334" width="56" height="22"><div xmlns="http://www.w3.org/1999/xhtml" class="lbl" style="font-size:12.5px;color:#4a5560;text-shadow:0 0 3px #ffffff,0 0 3px #ffffff,0 0 3px #ffffff,0 0 3px #ffffff;white-space:pre-line">回報遙測</div></foreignObject><path d="M 167 287.5 L 222 287.5 L 222 265.75 L 324 265.75 L 324 192.58333333333334 L 419 192.58333333333334" fill="none" stroke="#44505a" stroke-width="2"></path><path d="M 419 192.58333333333334 L 410 188.58333333333334 L 410 196.58333333333334 Z" fill="#44505a"></path><foreignObject x="248" y="268.75" width="56" height="22"><div xmlns="http://www.w3.org/1999/xhtml" class="lbl" style="font-size:12.5px;color:#4a5560;text-shadow:0 0 3px #ffffff,0 0 3px #ffffff,0 0 3px #ffffff,0 0 3px #ffffff;white-space:pre-line">訊息轉送</div></foreignObject><path d="M 503.8 97.25 L 521.8 97.25 L 521.8 105.25 L 752 105.25 L 752 130.5 L 854 130.5 L 854 136 L 1073 136" fill="none" stroke="#44505a" stroke-width="2"></path><path d="M 1073 136 L 1064 132 L 1064 140 Z" fill="#44505a"></path><foreignObject x="778" y="109.5" width="56" height="22"><div xmlns="http://www.w3.org/1999/xhtml" class="lbl" style="font-size:12.5px;color:#4a5560;text-shadow:0 0 3px #ffffff,0 0 3px #ffffff,0 0 3px #ffffff,0 0 3px #ffffff;white-space:pre-line">上傳雲端</div></foreignObject><path d="M 511 178.75 L 752 178.75 L 752 153.5 L 854 153.5 L 854 148 L 1073 148" fill="none" stroke="#44505a" stroke-width="2"></path><path d="M 1073 148 L 1064 144 L 1064 152 Z" fill="#44505a"></path><foreignObject x="778" y="156.5" width="56" height="22"><div xmlns="http://www.w3.org/1999/xhtml" class="lbl" style="font-size:12.5px;color:#4a5560;text-shadow:0 0 3px #ffffff,0 0 3px #ffffff,0 0 3px #ffffff,0 0 3px #ffffff;white-space:pre-line">上傳雲端</div></foreignObject><path d="M 1305 265 L 1329 265 L 1329 546 L 12 546 L 12 287.5 L 67 287.5" fill="none" stroke="#44505a" stroke-width="2" stroke-dasharray="6 4"></path><path d="M 67 287.5 L 58 283.5 L 58 291.5 Z" fill="#44505a"></path><foreignObject x="512.5" y="549" width="81" height="22"><div xmlns="http://www.w3.org/1999/xhtml" class="lbl" style="font-size:12.5px;color:#4a5560;text-shadow:0 0 3px #ffffff,0 0 3px #ffffff,0 0 3px #ffffff,0 0 3px #ffffff;white-space:pre-line">下發控制指令</div></foreignObject><path d="M 171 375 L 222 375 L 222 331.5 L 405.8 331.5 L 405.8 100.25 L 423.8 100.25" fill="none" stroke="#44505a" stroke-width="2" stroke-dasharray="6 4"></path><path d="M 423.8 100.25 L 414.8 96.25 L 414.8 104.25 Z" fill="#44505a"></path><foreignObject x="248" y="334.5" width="56" height="22"><div xmlns="http://www.w3.org/1999/xhtml" class="lbl" style="font-size:12.5px;color:#4a5560;text-shadow:0 0 3px #ffffff,0 0 3px #ffffff,0 0 3px #ffffff,0 0 3px #ffffff;white-space:pre-line">回報遙測</div></foreignObject><rect x="63" y="54" width="108" height="36" rx="7" fill="#eef4fb" stroke="#3f6fb0" stroke-width="1.6"></rect><foreignObject x="63" y="54" width="108" height="36"><div xmlns="http://www.w3.org/1999/xhtml" class="lbl" style="width:100%;height:100%;display:flex;align-items:center;justify-content:center;text-align:center;font-size:14px;color:#1c2b36;line-height:1.4;padding:0 4px;box-sizing:border-box"><div style="width:100%;min-width:0;white-space:pre-line;overflow-wrap:break-word;word-break:normal">溫濕度感測器</div></div></foreignObject><rect x="77" y="118" width="94" height="36" rx="7" fill="#eef4fb" stroke="#3f6fb0" stroke-width="1.6"></rect><foreignObject x="77" y="118" width="94" height="36"><div xmlns="http://www.w3.org/1999/xhtml" class="lbl" style="width:100%;height:100%;display:flex;align-items:center;justify-content:center;text-align:center;font-size:14px;color:#1c2b36;line-height:1.4;padding:0 4px;box-sizing:border-box"><div style="width:100%;min-width:0;white-space:pre-line;overflow-wrap:break-word;word-break:normal">攝影機裝置</div></div></foreignObject><rect x="91" y="182" width="80" height="36" rx="7" fill="#eef4fb" stroke="#3f6fb0" stroke-width="1.6"></rect><foreignObject x="91" y="182" width="80" height="36"><div xmlns="http://www.w3.org/1999/xhtml" class="lbl" style="width:100%;height:100%;display:flex;align-items:center;justify-content:center;text-align:center;font-size:14px;color:#1c2b36;line-height:1.4;padding:0 4px;box-sizing:border-box"><div style="width:100%;min-width:0;white-space:pre-line;overflow-wrap:break-word;word-break:normal">智慧電表</div></div></foreignObject><rect x="67" y="246" width="100" height="83" rx="7" fill="#eef4fb"></rect><path d="M 74 246 H 160 A 7 7 0 0 1 167 253 V 278 H 67 V 253 A 7 7 0 0 1 74 246 Z" fill="#d2dfef"></path><rect x="67" y="246" width="100" height="83" rx="7" fill="none" stroke="#3f6fb0" stroke-width="1.6"></rect><line x1="67" y1="278" x2="167" y2="278" stroke="#3f6fb0" stroke-width="1"></line><foreignObject x="67" y="246" width="100" height="32"><div xmlns="http://www.w3.org/1999/xhtml" class="lbl" style="width:100%;height:100%;display:flex;align-items:center;justify-content:center;text-align:center;font-weight:bold;font-size:14px;color:#1c2b36"><div style="width:100%;min-width:0;white-space:pre-line;overflow-wrap:break-word;word-break:normal">邊緣控制器</div></div></foreignObject><foreignObject x="67" y="278" width="100" height="51"><div xmlns="http://www.w3.org/1999/xhtml" class="lbl" style="font-size:13px;line-height:1.55;padding:6px 9px 4px;text-align:left;color:#1c2b36"><div style="white-space:nowrap">•&#160;資料緩衝</div><div style="white-space:nowrap">•&#160;協定轉換</div></div></foreignObject><rect x="91" y="357" width="80" height="36" rx="7" fill="#eef4fb" stroke="#3f6fb0" stroke-width="1.6"></rect><foreignObject x="91" y="357" width="80" height="36"><div xmlns="http://www.w3.org/1999/xhtml" class="lbl" style="width:100%;height:100%;display:flex;align-items:center;justify-content:center;text-align:center;font-size:14px;color:#1c2b36;line-height:1.4;padding:0 4px;box-sizing:border-box"><div style="width:100%;min-width:0;white-space:pre-line;overflow-wrap:break-word;word-break:normal">智慧門鎖</div></div></foreignObject><rect x="423.8" y="73.25" width="80" height="36" rx="7" fill="#eaf4ef" stroke="#348a5c" stroke-width="1.6"></rect><foreignObject x="423.8" y="73.25" width="80" height="36"><div xmlns="http://www.w3.org/1999/xhtml" class="lbl" style="width:100%;height:100%;display:flex;align-items:center;justify-content:center;text-align:center;font-size:14px;color:#1c2b36;line-height:1.4;padding:0 4px;box-sizing:border-box"><div style="width:100%;min-width:0;white-space:pre-line;overflow-wrap:break-word;word-break:normal">協定閘道</div></div></foreignObject><rect x="419" y="137.25" width="92" height="83" rx="7" fill="#eaf4ef"></rect><path d="M 426 137.25 H 504 A 7 7 0 0 1 511 144.25 V 169.25 H 419 V 144.25 A 7 7 0 0 1 426 137.25 Z" fill="#cde3d7"></path><rect x="419" y="137.25" width="92" height="83" rx="7" fill="none" stroke="#348a5c" stroke-width="1.6"></rect><line x1="419" y1="169.25" x2="511" y2="169.25" stroke="#348a5c" stroke-width="1"></line><foreignObject x="419" y="137.25" width="92" height="32"><div xmlns="http://www.w3.org/1999/xhtml" class="lbl" style="width:100%;height:100%;display:flex;align-items:center;justify-content:center;text-align:center;font-weight:bold;font-size:14px;color:#1c2b36"><div style="width:100%;min-width:0;white-space:pre-line;overflow-wrap:break-word;word-break:normal">訊息代理</div></div></foreignObject><foreignObject x="419" y="169.25" width="92" height="51"><div xmlns="http://www.w3.org/1999/xhtml" class="lbl" style="font-size:13px;line-height:1.55;padding:6px 9px 4px;text-align:left;color:#1c2b36"><div style="white-space:nowrap">•&#160;訊息佇列</div><div style="white-space:nowrap">•&#160;主題路由</div></div></foreignObject><rect x="621" y="59.25" width="80" height="36" rx="7" fill="#eaf4ef" stroke="#348a5c" stroke-width="1.6"></rect><foreignObject x="621" y="59.25" width="80" height="36"><div xmlns="http://www.w3.org/1999/xhtml" class="lbl" style="width:100%;height:100%;display:flex;align-items:center;justify-content:center;text-align:center;font-size:14px;color:#1c2b36;line-height:1.4;padding:0 4px;box-sizing:border-box"><div style="width:100%;min-width:0;white-space:pre-line;overflow-wrap:break-word;word-break:normal">本地快取</div></div></foreignObject><rect x="1073" y="124" width="78" height="36" rx="7" fill="#fcf0e2" stroke="#c46e1a" stroke-width="1.6"></rect><foreignObject x="1073" y="124" width="78" height="36"><div xmlns="http://www.w3.org/1999/xhtml" class="lbl" style="width:100%;height:100%;display:flex;align-items:center;justify-content:center;text-align:center;font-size:14px;color:#1c2b36;line-height:1.4;padding:0 4px;box-sizing:border-box"><div style="width:100%;min-width:0;white-space:pre-line;overflow-wrap:break-word;word-break:normal">API 閘道</div></div></foreignObject><rect x="915" y="281.5" width="114" height="103" rx="7" fill="#fcf0e2"></rect><path d="M 922 281.5 H 1022 A 7 7 0 0 1 1029 288.5 V 313.5 H 915 V 288.5 A 7 7 0 0 1 922 281.5 Z" fill="#f3dbc2"></path><rect x="915" y="281.5" width="114" height="103" rx="7" fill="none" stroke="#c46e1a" stroke-width="1.6"></rect><line x1="915" y1="313.5" x2="1029" y2="313.5" stroke="#c46e1a" stroke-width="1"></line><foreignObject x="915" y="281.5" width="114" height="32"><div xmlns="http://www.w3.org/1999/xhtml" class="lbl" style="width:100%;height:100%;display:flex;align-items:center;justify-content:center;text-align:center;font-weight:bold;font-size:14px;color:#1c2b36"><div style="width:100%;min-width:0;white-space:pre-line;overflow-wrap:break-word;word-break:normal">資料處理服務</div></div></foreignObject><foreignObject x="915" y="313.5" width="114" height="71"><div xmlns="http://www.w3.org/1999/xhtml" class="lbl" style="font-size:13px;line-height:1.55;padding:6px 9px 4px;text-align:left;color:#1c2b36"><div style="white-space:nowrap">•&#160;清洗</div><div style="white-space:nowrap">•&#160;聚合</div><div style="white-space:nowrap">•&#160;異常偵測</div></div></foreignObject><rect x="1225" y="183" width="94" height="36" rx="7" fill="#fcf0e2" stroke="#c46e1a" stroke-width="1.6"></rect><foreignObject x="1225" y="183" width="94" height="36"><div xmlns="http://www.w3.org/1999/xhtml" class="lbl" style="width:100%;height:100%;display:flex;align-items:center;justify-content:center;text-align:center;font-size:14px;color:#1c2b36;line-height:1.4;padding:0 4px;box-sizing:border-box"><div style="width:100%;min-width:0;white-space:pre-line;overflow-wrap:break-word;word-break:normal">時序資料庫</div></div></foreignObject><rect x="1225" y="247" width="80" height="36" rx="7" fill="#fcf0e2" stroke="#c46e1a" stroke-width="1.6"></rect><foreignObject x="1225" y="247" width="80" height="36"><div xmlns="http://www.w3.org/1999/xhtml" class="lbl" style="width:100%;height:100%;display:flex;align-items:center;justify-content:center;text-align:center;font-size:14px;color:#1c2b36;line-height:1.4;padding:0 4px;box-sizing:border-box"><div style="width:100%;min-width:0;white-space:pre-line;overflow-wrap:break-word;word-break:normal">告警服務</div></div></foreignObject><rect x="1225" y="361" width="94" height="36" rx="7" fill="#fcf0e2" stroke="#c46e1a" stroke-width="1.6"></rect><foreignObject x="1225" y="361" width="94" height="36"><div xmlns="http://www.w3.org/1999/xhtml" class="lbl" style="width:100%;height:100%;display:flex;align-items:center;justify-content:center;text-align:center;font-size:14px;color:#1c2b36;line-height:1.4;padding:0 4px;box-sizing:border-box"><div style="width:100%;min-width:0;white-space:pre-line;overflow-wrap:break-word;word-break:normal">監控儀表板</div></div></foreignObject><rect x="1073" y="315" width="108" height="36" rx="7" fill="#fcf0e2" stroke="#c46e1a" stroke-width="1.6"></rect><foreignObject x="1073" y="315" width="108" height="36"><div xmlns="http://www.w3.org/1999/xhtml" class="lbl" style="width:100%;height:100%;display:flex;align-items:center;justify-content:center;text-align:center;font-size:14px;color:#1c2b36;line-height:1.4;padding:0 4px;box-sizing:border-box"><div style="width:100%;min-width:0;white-space:pre-line;overflow-wrap:break-word;word-break:normal">歷史報表服務</div></div></foreignObject><rect x="1073" y="429" width="122" height="36" rx="7" fill="#fcf0e2" stroke="#c46e1a" stroke-width="1.6"></rect><foreignObject x="1073" y="429" width="122" height="36"><div xmlns="http://www.w3.org/1999/xhtml" class="lbl" style="width:100%;height:100%;display:flex;align-items:center;justify-content:center;text-align:center;font-size:14px;color:#1c2b36;line-height:1.4;padding:0 4px;box-sizing:border-box"><div style="width:100%;min-width:0;white-space:pre-line;overflow-wrap:break-word;word-break:normal">使用者入口網站</div></div></foreignObject></svg>