<svg xmlns="http://www.w3.org/2000/svg" width="555" height="826" viewBox="-18 -18 555 826" style="background:#fff"><rect x="30" y="12" width="358" height="159" rx="8" fill="#f5f9fe" fill-opacity="0.38" stroke="#3f6fb0" stroke-width="2"></rect><foreignObject x="174.5" y="17" width="69" height="33"><div xmlns="http://www.w3.org/1999/xhtml" class="lbl" style="text-align:center;font-weight:bold;font-size:15px;color:#3f6fb0;line-height:1.3;white-space:pre-line;overflow-wrap:break-word;word-break:normal">前台層</div></foreignObject><rect x="53" y="339" width="454" height="159" rx="8" fill="#f0f7f3" fill-opacity="0.38" stroke="#348a5c" stroke-width="2"></rect><foreignObject x="245.5" y="344" width="69" height="33"><div xmlns="http://www.w3.org/1999/xhtml" class="lbl" style="text-align:center;font-weight:bold;font-size:15px;color:#348a5c;line-height:1.3;white-space:pre-line;overflow-wrap:break-word;word-break:normal">服務層</div></foreignObject><rect x="170" y="666" width="310" height="112" rx="8" fill="#fdf6ec" fill-opacity="0.38" stroke="#c46e1a" stroke-width="2"></rect><foreignObject x="290.5" y="671" width="69" height="33"><div xmlns="http://www.w3.org/1999/xhtml" class="lbl" style="text-align:center;font-weight:bold;font-size:15px;color:#c46e1a;line-height:1.3;white-space:pre-line;overflow-wrap:break-word;word-break:normal">資料層</div></foreignObject><path d="M 138 171 L 138 208 L 137 208 L 137 278 L 106 278 L 106 339" fill="none" stroke="#44505a" stroke-width="2"></path><path d="M 106 339 L 110 330 L 102 330 Z" fill="#44505a"></path><foreignObject x="85" y="234" width="56" height="22"><div xmlns="http://www.w3.org/1999/xhtml" class="lbl" style="font-size:12.5px;color:#4a5560;text-shadow:0 0 3px #ffffff,0 0 3px #ffffff,0 0 3px #ffffff,0 0 3px #ffffff;white-space:pre-line">前台請求</div></foreignObject><path d="M 463 498 L 463 535 L 474 535 L 474 605 L 436 605 L 436 666" fill="none" stroke="#44505a" stroke-width="2"></path><path d="M 436 666 L 440 657 L 432 657 Z" fill="#44505a"></path><foreignObject x="422" y="561" width="56" height="22"><div xmlns="http://www.w3.org/1999/xhtml" class="lbl" style="font-size:12.5px;color:#4a5560;text-shadow:0 0 3px #ffffff,0 0 3px #ffffff,0 0 3px #ffffff,0 0 3px #ffffff;white-space:pre-line">資料存取</div></foreignObject><path d="M 84 90 L 84 208 L 62 208 L 62 278 L 93 278 L 93 381" fill="none" stroke="#44505a" stroke-width="2"></path><path d="M 93 381 L 97 372 L 89 372 Z" fill="#44505a"></path><foreignObject x="12" y="234" width="54" height="22"><div xmlns="http://www.w3.org/1999/xhtml" class="lbl" style="font-size:12.5px;color:#4a5560;text-shadow:0 0 3px #ffffff,0 0 3px #ffffff,0 0 3px #ffffff,0 0 3px #ffffff;white-space:pre-line">呼叫 API</div></foreignObject><path d="M 192 90 L 192 208 L 210 208 L 210 302 L 119 302 L 119 381" fill="none" stroke="#44505a" stroke-width="2"></path><path d="M 119 381 L 123 372 L 115 372 Z" fill="#44505a"></path><foreignObject x="160" y="234" width="54" height="22"><div xmlns="http://www.w3.org/1999/xhtml" class="lbl" style="font-size:12.5px;color:#4a5560;text-shadow:0 0 3px #ffffff,0 0 3px #ffffff,0 0 3px #ffffff,0 0 3px #ffffff;white-space:pre-line">呼叫 API</div></foreignObject><path d="M 203.66666666666666 484 L 203.66666666666669 535 L 215.33333333333334 535 L 215.33333333333334 728" fill="none" stroke="#44505a" stroke-width="2"></path><path d="M 215.33333333333334 728 L 219.33333333333334 719 L 211.33333333333334 719 Z" fill="#44505a"></path><path d="M 339 464 L 339 605 L 246.66666666666666 605 L 246.66666666666666 728" fill="none" stroke="#44505a" stroke-width="2"></path><path d="M 246.66666666666666 728 L 250.66666666666666 719 L 242.66666666666666 719 Z" fill="#44505a"></path><path d="M 234.33333333333334 484 L 234.33333333333334 535 L 314 535 L 314 629 L 332 629 L 332 728" fill="none" stroke="#44505a" stroke-width="2" stroke-dasharray="6 4"></path><path d="M 332 728 L 336 719 L 328 719 Z" fill="#44505a"></path><foreignObject x="262" y="561" width="56" height="22"><div xmlns="http://www.w3.org/1999/xhtml" class="lbl" style="font-size:12.5px;color:#4a5560;text-shadow:0 0 3px #ffffff,0 0 3px #ffffff,0 0 3px #ffffff,0 0 3px #ffffff;white-space:pre-line">快取查詢</div></foreignObject><path d="M 453 417 L 453 535 L 397 535 L 397 605 L 426 605 L 426 728" fill="none" stroke="#44505a" stroke-width="2"></path><path d="M 426 728 L 430 719 L 422 719 Z" fill="#44505a"></path><rect x="44" y="54" width="80" height="36" rx="7" fill="#eef4fb" stroke="#3f6fb0" stroke-width="1.6"></rect><foreignObject x="44" y="54" width="80" height="36"><div xmlns="http://www.w3.org/1999/xhtml" class="lbl" style="width:100%;height:100%;display:flex;align-items:center;justify-content:center;text-align:center;font-size:14px;color:#1c2b36;line-height:1.4;padding:0 4px;box-sizing:border-box"><div style="width:100%;min-width:0;white-space:pre-line;overflow-wrap:break-word;word-break:normal">網頁前端</div></div></foreignObject><rect x="152" y="54" width="80" height="36" rx="7" fill="#eef4fb" stroke="#3f6fb0" stroke-width="1.6"></rect><foreignObject x="152" y="54" width="80" height="36"><div xmlns="http://www.w3.org/1999/xhtml" class="lbl" style="width:100%;height:100%;display:flex;align-items:center;justify-content:center;text-align:center;font-size:14px;color:#1c2b36;line-height:1.4;padding:0 4px;box-sizing:border-box"><div style="width:100%;min-width:0;white-space:pre-line;overflow-wrap:break-word;word-break:normal">行動應用</div></div></foreignObject><rect x="260" y="54" width="114" height="103" rx="7" fill="#eef4fb"></rect><path d="M 267 54 H 367 A 7 7 0 0 1 374 61 V 86 H 260 V 61 A 7 7 0 0 1 267 54 Z" fill="#d2dfef"></path><rect x="260" y="54" width="114" height="103" rx="7" fill="none" stroke="#3f6fb0" stroke-width="1.6"></rect><line x1="260" y1="86" x2="374" y2="86" stroke="#3f6fb0" stroke-width="1"></line><foreignObject x="260" y="54" width="114" height="32"><div xmlns="http://www.w3.org/1999/xhtml" class="lbl" style="width:100%;height:100%;display:flex;align-items:center;justify-content:center;text-align:center;font-weight:bold;font-size:14px;color:#1c2b36"><div style="width:100%;min-width:0;white-space:pre-line;overflow-wrap:break-word;word-break:normal">前端共用元件</div></div></foreignObject><foreignObject x="260" y="86" width="114" height="71"><div xmlns="http://www.w3.org/1999/xhtml" class="lbl" style="font-size:13px;line-height:1.55;padding:6px 9px 4px;text-align:left;color:#1c2b36"><div style="white-space:nowrap">•&#160;元件庫</div><div style="white-space:nowrap">•&#160;狀態管理</div><div style="white-space:nowrap">•&#160;路由設定</div></div></foreignObject><rect x="67" y="381" width="78" height="36" rx="7" fill="#eaf4ef" stroke="#348a5c" stroke-width="1.6"></rect><foreignObject x="67" y="381" width="78" height="36"><div xmlns="http://www.w3.org/1999/xhtml" class="lbl" style="width:100%;height:100%;display:flex;align-items:center;justify-content:center;text-align:center;font-size:14px;color:#1c2b36;line-height:1.4;padding:0 4px;box-sizing:border-box"><div style="width:100%;min-width:0;white-space:pre-line;overflow-wrap:break-word;word-break:normal">API 閘道</div></div></foreignObject><rect x="173" y="381" width="92" height="103" rx="7" fill="#eaf4ef"></rect><path d="M 180 381 H 258 A 7 7 0 0 1 265 388 V 413 H 173 V 388 A 7 7 0 0 1 180 381 Z" fill="#cde3d7"></path><rect x="173" y="381" width="92" height="103" rx="7" fill="none" stroke="#348a5c" stroke-width="1.6"></rect><line x1="173" y1="413" x2="265" y2="413" stroke="#348a5c" stroke-width="1"></line><foreignObject x="173" y="381" width="92" height="32"><div xmlns="http://www.w3.org/1999/xhtml" class="lbl" style="width:100%;height:100%;display:flex;align-items:center;justify-content:center;text-align:center;font-weight:bold;font-size:14px;color:#1c2b36"><div style="width:100%;min-width:0;white-space:pre-line;overflow-wrap:break-word;word-break:normal">訂單服務</div></div></foreignObject><foreignObject x="173" y="413" width="92" height="71"><div xmlns="http://www.w3.org/1999/xhtml" class="lbl" style="font-size:13px;line-height:1.55;padding:6px 9px 4px;text-align:left;color:#1c2b36"><div style="white-space:nowrap">•&#160;訂單建立</div><div style="white-space:nowrap">•&#160;訂單查詢</div><div style="white-space:nowrap">•&#160;退款處理</div></div></foreignObject><rect x="293" y="381" width="92" height="83" rx="7" fill="#eaf4ef"></rect><path d="M 300 381 H 378 A 7 7 0 0 1 385 388 V 413 H 293 V 388 A 7 7 0 0 1 300 381 Z" fill="#cde3d7"></path><rect x="293" y="381" width="92" height="83" rx="7" fill="none" stroke="#348a5c" stroke-width="1.6"></rect><line x1="293" y1="413" x2="385" y2="413" stroke="#348a5c" stroke-width="1"></line><foreignObject x="293" y="381" width="92" height="32"><div xmlns="http://www.w3.org/1999/xhtml" class="lbl" style="width:100%;height:100%;display:flex;align-items:center;justify-content:center;text-align:center;font-weight:bold;font-size:14px;color:#1c2b36"><div style="width:100%;min-width:0;white-space:pre-line;overflow-wrap:break-word;word-break:normal">會員服務</div></div></foreignObject><foreignObject x="293" y="413" width="92" height="51"><div xmlns="http://www.w3.org/1999/xhtml" class="lbl" style="font-size:13px;line-height:1.55;padding:6px 9px 4px;text-align:left;color:#1c2b36"><div style="white-space:nowrap">•&#160;註冊登入</div><div style="white-space:nowrap">•&#160;權限驗證</div></div></foreignObject><rect x="413" y="381" width="80" height="36" rx="7" fill="#eaf4ef" stroke="#348a5c" stroke-width="1.6"></rect><foreignObject x="413" y="381" width="80" height="36"><div xmlns="http://www.w3.org/1999/xhtml" class="lbl" style="width:100%;height:100%;display:flex;align-items:center;justify-content:center;text-align:center;font-size:14px;color:#1c2b36;line-height:1.4;padding:0 4px;box-sizing:border-box"><div style="width:100%;min-width:0;white-space:pre-line;overflow-wrap:break-word;word-break:normal">通知服務</div></div></foreignObject><rect x="184" y="728" width="94" height="36" rx="7" fill="#fcf0e2" stroke="#c46e1a" stroke-width="1.6"></rect><foreignObject x="184" y="728" width="94" height="36"><div xmlns="http://www.w3.org/1999/xhtml" class="lbl" style="width:100%;height:100%;display:flex;align-items:center;justify-content:center;text-align:center;font-size:14px;color:#1c2b36;line-height:1.4;padding:0 4px;box-sizing:border-box"><div style="width:100%;min-width:0;white-space:pre-line;overflow-wrap:break-word;word-break:normal">主要資料庫</div></div></foreignObject><rect x="306" y="728" width="52" height="36" rx="7" fill="#fcf0e2" stroke="#c46e1a" stroke-width="1.6"></rect><foreignObject x="306" y="728" width="52" height="36"><div xmlns="http://www.w3.org/1999/xhtml" class="lbl" style="width:100%;height:100%;display:flex;align-items:center;justify-content:center;text-align:center;font-size:14px;color:#1c2b36;line-height:1.4;padding:0 4px;box-sizing:border-box"><div style="width:100%;min-width:0;white-space:pre-line;overflow-wrap:break-word;word-break:normal">快取</div></div></foreignObject><rect x="386" y="728" width="80" height="36" rx="7" fill="#fcf0e2" stroke="#c46e1a" stroke-width="1.6"></rect><foreignObject x="386" y="728" width="80" height="36"><div xmlns="http://www.w3.org/1999/xhtml" class="lbl" style="width:100%;height:100%;display:flex;align-items:center;justify-content:center;text-align:center;font-size:14px;color:#1c2b36;line-height:1.4;padding:0 4px;box-sizing:border-box"><div style="width:100%;min-width:0;white-space:pre-line;overflow-wrap:break-word;word-break:normal">訊息佇列</div></div></foreignObject></svg>