<svg xmlns="http://www.w3.org/2000/svg" width="600" height="852" viewBox="-18 -18 600 852" style="background:#fff"><rect x="12" y="12" width="539.5" height="501" rx="8" fill="#faf7fd" fill-opacity="0.38" stroke="#8163ad" stroke-width="2"></rect><foreignObject x="239.75" y="17" width="84" height="33"><div xmlns="http://www.w3.org/1999/xhtml" class="lbl" style="text-align:center;font-weight:bold;font-size:15px;color:#8163ad;line-height:1.3;overflow-wrap:break-word;word-break:normal">入口網站</div></foreignObject><rect x="26" y="54" width="108" height="434" rx="8" fill="#eef4fb" fill-opacity="0.38" stroke="#3f6fb0" stroke-width="2"></rect><foreignObject x="30.5" y="59" width="99" height="33"><div xmlns="http://www.w3.org/1999/xhtml" class="lbl" style="text-align:center;font-weight:bold;font-size:15px;color:#3f6fb0;line-height:1.3;overflow-wrap:break-word;word-break:normal">商品瀏覽區</div></foreignObject><rect x="162" y="168" width="213" height="320" rx="8" fill="#eaf4ef" fill-opacity="0.38" stroke="#348a5c" stroke-width="2"></rect><foreignObject x="226.5" y="173" width="84" height="33"><div xmlns="http://www.w3.org/1999/xhtml" class="lbl" style="text-align:center;font-weight:bold;font-size:15px;color:#348a5c;line-height:1.3;overflow-wrap:break-word;word-break:normal">會員專區</div></foreignObject><rect x="403" y="54" width="134.5" height="434" rx="8" fill="#fdf6ec" fill-opacity="0.38" stroke="#c46e1a" stroke-width="2"></rect><foreignObject x="428.25" y="59" width="84" height="33"><div xmlns="http://www.w3.org/1999/xhtml" class="lbl" style="text-align:center;font-weight:bold;font-size:15px;color:#c46e1a;line-height:1.3;overflow-wrap:break-word;word-break:normal">購物流程</div></foreignObject><path d="M 80 132 L 80 210" fill="none" stroke="#44505a" stroke-width="2"></path><path d="M 80 210 L 84 201 L 76 201 Z" fill="#44505a"></path><foreignObject x="53" y="162" width="31" height="22"><div xmlns="http://www.w3.org/1999/xhtml" class="lbl" style="font-size:12.5px;color:#4a5560;text-shadow:0 0 3px #ffffff,0 0 3px #ffffff,0 0 3px #ffffff,0 0 3px #ffffff;white-space:nowrap">點擊</div></foreignObject><path d="M 80 246 L 80 324" fill="none" stroke="#44505a" stroke-width="2"></path><path d="M 80 324 L 84 315 L 76 315 Z" fill="#44505a"></path><foreignObject x="53" y="276" width="31" height="22"><div xmlns="http://www.w3.org/1999/xhtml" class="lbl" style="font-size:12.5px;color:#4a5560;text-shadow:0 0 3px #ffffff,0 0 3px #ffffff,0 0 3px #ffffff,0 0 3px #ffffff;white-space:nowrap">點擊</div></foreignObject><path d="M 80 360 L 80 438" fill="none" stroke="#44505a" stroke-width="2"></path><path d="M 80 438 L 84 429 L 76 429 Z" fill="#44505a"></path><foreignObject x="53" y="390" width="31" height="22"><div xmlns="http://www.w3.org/1999/xhtml" class="lbl" style="font-size:12.5px;color:#4a5560;text-shadow:0 0 3px #ffffff,0 0 3px #ffffff,0 0 3px #ffffff,0 0 3px #ffffff;white-space:nowrap">點擊</div></foreignObject><path d="M 293.5 246 L 293.5 264 L 209 264 L 209 324" fill="none" stroke="#44505a" stroke-width="2"></path><path d="M 209 324 L 213 315 L 205 315 Z" fill="#44505a"></path><foreignObject x="182" y="276" width="31" height="22"><div xmlns="http://www.w3.org/1999/xhtml" class="lbl" style="font-size:12.5px;color:#4a5560;text-shadow:0 0 3px #ffffff,0 0 3px #ffffff,0 0 3px #ffffff,0 0 3px #ffffff;white-space:nowrap">點擊</div></foreignObject><path d="M 310 246 L 310 324" fill="none" stroke="#44505a" stroke-width="2"></path><path d="M 310 324 L 314 315 L 306 315 Z" fill="#44505a"></path><foreignObject x="258" y="276" width="56" height="22"><div xmlns="http://www.w3.org/1999/xhtml" class="lbl" style="font-size:12.5px;color:#4a5560;text-shadow:0 0 3px #ffffff,0 0 3px #ffffff,0 0 3px #ffffff,0 0 3px #ffffff;white-space:nowrap">登入成功</div></foreignObject><path d="M 310 360 L 310 438" fill="none" stroke="#44505a" stroke-width="2"></path><path d="M 310 438 L 314 429 L 306 429 Z" fill="#44505a"></path><foreignObject x="283" y="390" width="31" height="22"><div xmlns="http://www.w3.org/1999/xhtml" class="lbl" style="font-size:12.5px;color:#4a5560;text-shadow:0 0 3px #ffffff,0 0 3px #ffffff,0 0 3px #ffffff,0 0 3px #ffffff;white-space:nowrap">點擊</div></foreignObject><path d="M 479.5 132 L 479.5 150 L 469 150 L 469 210" fill="none" stroke="#44505a" stroke-width="2"></path><path d="M 469 210 L 473 201 L 465 201 Z" fill="#44505a"></path><foreignObject x="442" y="162" width="31" height="22"><div xmlns="http://www.w3.org/1999/xhtml" class="lbl" style="font-size:12.5px;color:#4a5560;text-shadow:0 0 3px #ffffff,0 0 3px #ffffff,0 0 3px #ffffff,0 0 3px #ffffff;white-space:nowrap">點擊</div></foreignObject><path d="M 469 246 L 469 324" fill="none" stroke="#44505a" stroke-width="2"></path><path d="M 469 324 L 473 315 L 465 315 Z" fill="#44505a"></path><foreignObject x="442" y="276" width="31" height="22"><div xmlns="http://www.w3.org/1999/xhtml" class="lbl" style="font-size:12.5px;color:#4a5560;text-shadow:0 0 3px #ffffff,0 0 3px #ffffff,0 0 3px #ffffff,0 0 3px #ffffff;white-space:nowrap">點擊</div></foreignObject><path d="M 469 360 L 469 438" fill="none" stroke="#44505a" stroke-width="2"></path><path d="M 469 438 L 473 429 L 465 429 Z" fill="#44505a"></path><foreignObject x="417" y="390" width="56" height="22"><div xmlns="http://www.w3.org/1999/xhtml" class="lbl" style="font-size:12.5px;color:#4a5560;text-shadow:0 0 3px #ffffff,0 0 3px #ffffff,0 0 3px #ffffff,0 0 3px #ffffff;white-space:nowrap">付款完成</div></foreignObject><path d="M 80 474 L 80 550 L 182.5 550 L 182.5 620 L 343.5 620 L 343.5 646" fill="none" stroke="#44505a" stroke-width="2"></path><path d="M 343.5 646 L 347.5 637 L 339.5 637 Z" fill="#44505a"></path><foreignObject x="155.5" y="576" width="31" height="22"><div xmlns="http://www.w3.org/1999/xhtml" class="lbl" style="font-size:12.5px;color:#4a5560;text-shadow:0 0 3px #ffffff,0 0 3px #ffffff,0 0 3px #ffffff,0 0 3px #ffffff;white-space:nowrap">點擊</div></foreignObject><path d="M 326.5 246 L 326.5 264 L 360 264 L 360 646" fill="none" stroke="#44505a" stroke-width="2" stroke-dasharray="6 4"></path><path d="M 360 646 L 364 637 L 356 637 Z" fill="#44505a"></path><foreignObject x="308" y="576" width="56" height="22"><div xmlns="http://www.w3.org/1999/xhtml" class="lbl" style="font-size:12.5px;color:#4a5560;text-shadow:0 0 3px #ffffff,0 0 3px #ffffff,0 0 3px #ffffff,0 0 3px #ffffff;white-space:nowrap">忘記密碼</div></foreignObject><path d="M 501.5 132 L 501.5 150 L 512 150 L 512 550 L 473.5 550 L 473.5 620 L 376.5 620 L 376.5 646" fill="none" stroke="#44505a" stroke-width="2"></path><path d="M 376.5 646 L 380.5 637 L 372.5 637 Z" fill="#44505a"></path><foreignObject x="421.5" y="576" width="56" height="22"><div xmlns="http://www.w3.org/1999/xhtml" class="lbl" style="font-size:12.5px;color:#4a5560;text-shadow:0 0 3px #ffffff,0 0 3px #ffffff,0 0 3px #ffffff,0 0 3px #ffffff;white-space:nowrap">需要協助</div></foreignObject><path d="M 360 682 L 360 768" fill="none" stroke="#44505a" stroke-width="2"></path><path d="M 360 768 L 364 759 L 356 759 Z" fill="#44505a"></path><foreignObject x="333" y="716" width="31" height="22"><div xmlns="http://www.w3.org/1999/xhtml" class="lbl" style="font-size:12.5px;color:#4a5560;text-shadow:0 0 3px #ffffff,0 0 3px #ffffff,0 0 3px #ffffff,0 0 3px #ffffff;white-space:nowrap">點擊</div></foreignObject><rect x="54" y="96" width="52" height="36" rx="7" fill="#eef4fb" stroke="#3f6fb0" stroke-width="1.6"></rect><foreignObject x="54" y="96" width="52" height="36"><div xmlns="http://www.w3.org/1999/xhtml" class="lbl" style="width:100%;height:100%;display:flex;align-items:center;justify-content:center;text-align:center;font-size:14px;color:#1c2b36;line-height:1.4;padding:0 4px;box-sizing:border-box"><div style="width:100%;min-width:0;overflow-wrap:break-word;word-break:normal">首頁</div></div></foreignObject><rect x="40" y="210" width="80" height="36" rx="7" fill="#eef4fb" stroke="#3f6fb0" stroke-width="1.6"></rect><foreignObject x="40" y="210" width="80" height="36"><div xmlns="http://www.w3.org/1999/xhtml" class="lbl" style="width:100%;height:100%;display:flex;align-items:center;justify-content:center;text-align:center;font-size:14px;color:#1c2b36;line-height:1.4;padding:0 4px;box-sizing:border-box"><div style="width:100%;min-width:0;overflow-wrap:break-word;word-break:normal">分類列表</div></div></foreignObject><rect x="40" y="324" width="80" height="36" rx="7" fill="#eef4fb" stroke="#3f6fb0" stroke-width="1.6"></rect><foreignObject x="40" y="324" width="80" height="36"><div xmlns="http://www.w3.org/1999/xhtml" class="lbl" style="width:100%;height:100%;display:flex;align-items:center;justify-content:center;text-align:center;font-size:14px;color:#1c2b36;line-height:1.4;padding:0 4px;box-sizing:border-box"><div style="width:100%;min-width:0;overflow-wrap:break-word;word-break:normal">商品清單</div></div></foreignObject><rect x="40" y="438" width="80" height="36" rx="7" fill="#eef4fb" stroke="#3f6fb0" stroke-width="1.6"></rect><foreignObject x="40" y="438" width="80" height="36"><div xmlns="http://www.w3.org/1999/xhtml" class="lbl" style="width:100%;height:100%;display:flex;align-items:center;justify-content:center;text-align:center;font-size:14px;color:#1c2b36;line-height:1.4;padding:0 4px;box-sizing:border-box"><div style="width:100%;min-width:0;overflow-wrap:break-word;word-break:normal">商品詳情</div></div></foreignObject><rect x="277" y="210" width="66" height="36" rx="7" fill="#eaf4ef" stroke="#348a5c" stroke-width="1.6"></rect><foreignObject x="277" y="210" width="66" height="36"><div xmlns="http://www.w3.org/1999/xhtml" class="lbl" style="width:100%;height:100%;display:flex;align-items:center;justify-content:center;text-align:center;font-size:14px;color:#1c2b36;line-height:1.4;padding:0 4px;box-sizing:border-box"><div style="width:100%;min-width:0;overflow-wrap:break-word;word-break:normal">登入頁</div></div></foreignObject><rect x="176" y="324" width="66" height="36" rx="7" fill="#eaf4ef" stroke="#348a5c" stroke-width="1.6"></rect><foreignObject x="176" y="324" width="66" height="36"><div xmlns="http://www.w3.org/1999/xhtml" class="lbl" style="width:100%;height:100%;display:flex;align-items:center;justify-content:center;text-align:center;font-size:14px;color:#1c2b36;line-height:1.4;padding:0 4px;box-sizing:border-box"><div style="width:100%;min-width:0;overflow-wrap:break-word;word-break:normal">註冊頁</div></div></foreignObject><rect x="270" y="324" width="80" height="36" rx="7" fill="#eaf4ef" stroke="#348a5c" stroke-width="1.6"></rect><foreignObject x="270" y="324" width="80" height="36"><div xmlns="http://www.w3.org/1999/xhtml" class="lbl" style="width:100%;height:100%;display:flex;align-items:center;justify-content:center;text-align:center;font-size:14px;color:#1c2b36;line-height:1.4;padding:0 4px;box-sizing:border-box"><div style="width:100%;min-width:0;overflow-wrap:break-word;word-break:normal">會員中心</div></div></foreignObject><rect x="270" y="438" width="80" height="36" rx="7" fill="#eaf4ef" stroke="#348a5c" stroke-width="1.6"></rect><foreignObject x="270" y="438" width="80" height="36"><div xmlns="http://www.w3.org/1999/xhtml" class="lbl" style="width:100%;height:100%;display:flex;align-items:center;justify-content:center;text-align:center;font-size:14px;color:#1c2b36;line-height:1.4;padding:0 4px;box-sizing:border-box"><div style="width:100%;min-width:0;overflow-wrap:break-word;word-break:normal">訂單紀錄</div></div></foreignObject><rect x="457.5" y="96" width="66" height="36" rx="7" fill="#fcf0e2" stroke="#c46e1a" stroke-width="1.6"></rect><foreignObject x="457.5" y="96" width="66" height="36"><div xmlns="http://www.w3.org/1999/xhtml" class="lbl" style="width:100%;height:100%;display:flex;align-items:center;justify-content:center;text-align:center;font-size:14px;color:#1c2b36;line-height:1.4;padding:0 4px;box-sizing:border-box"><div style="width:100%;min-width:0;overflow-wrap:break-word;word-break:normal">購物車</div></div></foreignObject><rect x="436" y="210" width="66" height="36" rx="7" fill="#fcf0e2" stroke="#c46e1a" stroke-width="1.6"></rect><foreignObject x="436" y="210" width="66" height="36"><div xmlns="http://www.w3.org/1999/xhtml" class="lbl" style="width:100%;height:100%;display:flex;align-items:center;justify-content:center;text-align:center;font-size:14px;color:#1c2b36;line-height:1.4;padding:0 4px;box-sizing:border-box"><div style="width:100%;min-width:0;overflow-wrap:break-word;word-break:normal">結帳頁</div></div></foreignObject><rect x="436" y="324" width="66" height="36" rx="7" fill="#fcf0e2" stroke="#c46e1a" stroke-width="1.6"></rect><foreignObject x="436" y="324" width="66" height="36"><div xmlns="http://www.w3.org/1999/xhtml" class="lbl" style="width:100%;height:100%;display:flex;align-items:center;justify-content:center;text-align:center;font-size:14px;color:#1c2b36;line-height:1.4;padding:0 4px;box-sizing:border-box"><div style="width:100%;min-width:0;overflow-wrap:break-word;word-break:normal">付款頁</div></div></foreignObject><rect x="436" y="438" width="66" height="36" rx="7" fill="#fcf0e2" stroke="#c46e1a" stroke-width="1.6"></rect><foreignObject x="436" y="438" width="66" height="36"><div xmlns="http://www.w3.org/1999/xhtml" class="lbl" style="width:100%;height:100%;display:flex;align-items:center;justify-content:center;text-align:center;font-size:14px;color:#1c2b36;line-height:1.4;padding:0 4px;box-sizing:border-box"><div style="width:100%;min-width:0;overflow-wrap:break-word;word-break:normal">完成頁</div></div></foreignObject><rect x="327" y="646" width="66" height="36" rx="7" fill="#f4f0fa" stroke="#8163ad" stroke-width="1.6"></rect><foreignObject x="327" y="646" width="66" height="36"><div xmlns="http://www.w3.org/1999/xhtml" class="lbl" style="width:100%;height:100%;display:flex;align-items:center;justify-content:center;text-align:center;font-size:14px;color:#23303a;line-height:1.4;padding:0 4px;box-sizing:border-box"><div style="width:100%;min-width:0;overflow-wrap:break-word;word-break:normal">客服頁</div></div></foreignObject><rect x="320" y="768" width="80" height="36" rx="7" fill="#f4f0fa" stroke="#8163ad" stroke-width="1.6"></rect><foreignObject x="320" y="768" width="80" height="36"><div xmlns="http://www.w3.org/1999/xhtml" class="lbl" style="width:100%;height:100%;display:flex;align-items:center;justify-content:center;text-align:center;font-size:14px;color:#23303a;line-height:1.4;padding:0 4px;box-sizing:border-box"><div style="width:100%;min-width:0;overflow-wrap:break-word;word-break:normal">常見問題</div></div></foreignObject></svg>